<?xml version="1.0" encoding="utf-8"?>
<!-- Generator: Adobe Illustrator 24.2.3, SVG Export Plug-In . SVG Version: 6.00 Build 0)  -->
<svg version="1.1" id="Ebene_1" xmlns="http://www.w3.org/2000/svg" xmlns:xlink="http://www.w3.org/1999/xlink" x="0px" y="0px"
	 viewBox="0 0 595.28 841.89" style="enable-background:new 0 0 595.28 841.89;" xml:space="preserve">
<style type="text/css">
	.st0{fill:#852B86;}
	.st1{fill:#4C75B9;}
</style>
<g id="XMLID_2_">
	<g>
		<path class="st0" d="M530.89,497.21c-1.37,3.91-5.29,5.28-9.91,5.94c-3.39-4.53-15.12-0.73-21.79-1.98
			c-24.59-1.48-37.26,8.96-51.5,17.83c-12.34-7.47-34.11-5.51-43.58-15.85c-1.08-11.69,16.35-15.28,23.77-11.88
			c5.88,6.45-7.22,5.95-11.89,7.92c9.39,3.82,20.77,5.64,27.74,11.88C465.25,488.71,499.26,495.58,530.89,497.21z"/>
		<path class="st0" d="M431.84,465.51c26.52,15.69,55.85,6.25,87.16,7.93c-0.04,10.39-15.65,5.02-25.75,5.94
			c-22.14,2.01-40.59,3.17-59.43-3.96c-5.61-0.33,1.65,12.21-3.96,11.88c-7.37,0.11-5.71-8.81-5.94-15.84
			C428.88,471.8,428.73,467.02,431.84,465.51z"/>
		<path class="st0" d="M414.01,483.34c-7.6,1.48-12.95-13.91-25.75-3.96c-58.32-51.35-162.52,23.36-213.94,53.48
			c9.93-6.52,21.37-24.83,33.68-31.69c46.05-25.68,138.97-78.25,182.24-31.69C403.69,468.57,413.41,471.4,414.01,483.34z"/>
		<path class="st0" d="M344.68,265.44c13.39,38.84,46.59,73.26,29.71,118.86c-5.7-6.78-0.73-19.55-3.96-29.72
			c-5.73-18.02-17.85-37.19-25.75-57.44c-13.39-34.31-12.38-66.9-25.75-93.11c7.01-1.07,4.87,7.02,11.88,5.95
			C338.79,228.25,338.46,247.4,344.68,265.44z"/>
		<path class="st0" d="M354.58,400.14c-30.67,6.23-35.13-25.48-55.46-41.6c-18.03-14.28-47.47-26.1-57.45-49.52
			c-6.89-16.17-6.07-34.57-5.94-51.5c3.2-0.56,3.41,1.87,5.94,1.98c-1.27,54.57,47.08,69.66,73.3,103.01
			c6.18,7.85,7.75,18.27,13.86,23.77C335.55,392.32,348.71,392.62,354.58,400.14z"/>
		<path class="st0" d="M336.76,166.4c2.43,0.86,4.06,2.53,3.96,5.94c-16.56,1.93-21.03,15.95-37.64,17.83
			C306.63,174.57,323.81,172.6,336.76,166.4z"/>
		<path class="st0" d="M330.81,180.26c1.98,0,3.97,0,5.95,0c-2.32,9.57-5.36,18.42-17.83,17.83
			C323.26,192.52,329.61,188.96,330.81,180.26z"/>
		<path class="st1" d="M309.02,596.25c3.83,12.02,21.92,9.78,19.81,27.74c-19.92,11.38-33.07-14.86-59.42-9.91
			c-9.3-0.71-6.01,11.16-15.85,9.91c9.28-34.84,41.96-16.15,65.37-5.95c-5.11-10.08-16.81-13.56-19.81-25.75
			c9.96-1.33,28.1-2.59,37.64-9.9c-10.13-19.59-50.91-8.52-61.41-27.74c19.39,6.48,66.58,2.01,73.29,27.74
			C339.24,590.81,327.96,597.36,309.02,596.25z"/>
		<path class="st0" d="M443.73,459.57c-36.63-6.34-79.22-38.83-128.76-35.66c-29.89,1.92-55.36,16.88-81.22,19.81
			C293.28,402.35,394.45,418.88,443.73,459.57z"/>
		<path class="st1" d="M289.21,796.33c6.27,2.72,6.63,0.43,13.87,0c-15.76,26.81-23.57-7.48-31.69-21.79
			c-6.71-11.83-17.05-16.64-21.79-23.77c-23.79-0.65-37.07-11.8-41.6-31.7c10.86-1.62,8.81,9.68,13.86,13.87
			C260.23,732.81,279.84,766.77,289.21,796.33z"/>
		<path class="st1" d="M251.58,715.11c30.25,11.76,41.89,44.77,51.5,75.27c-19.81-3.24-16.46-28.3-27.73-45.56
			c-8.64-13.22-18.99-14.16-29.72-25.75c-0.55-3.2,1.88-3.41,1.99-5.94C249.92,712.81,251.14,713.57,251.58,715.11z"/>
		<path class="st0" d="M281.29,160.45c20.28,1.91,14.71,33.45,3.96,41.6C278.36,196.78,287.21,171.67,281.29,160.45z"/>
		<path class="st0" d="M275.35,202.05c-22.17-1.22-16.57-55.92,3.96-47.54C266.66,164.58,265.29,188.81,275.35,202.05z"/>
		<path class="st1" d="M237.71,524.94c16.36,5.44,32.11,11.47,33.68,31.7c-8.62-5.25-16.95-10.79-23.77-17.83
			c-7.39-0.79-0.84,12.37-5.95,13.86C235.4,549.04,234.62,531.59,237.71,524.94z"/>
		<path class="st1" d="M255.54,625.97c15.43,25.89-6.62,59.83-7.92,85.18c-15.99-22.96,10.6-50.26,1.98-85.18
			C251.58,625.97,253.56,625.97,255.54,625.97z"/>
		<path class="st0" d="M225.83,318.93c8.39,3.93-8.21,14.97-9.91,21.79c2.93,46.03,6.17,75.46-11.88,108.95
			C213.43,407.83,185.51,342.34,225.83,318.93z"/>
		<path class="st1" d="M176.3,623.99c24.86-18.41,37.02-50.41,63.39-67.35c-23.79,49.5-59.32,87.26-118.85,101.02
			c-2.64,0-5.29,0-7.93,0c0.37,1.69-0.77,1.87-1.98,1.98c-6.95-5.01-17.55,0.02-25.75,0c-2.3-1.66-5.31-2.61-9.9-1.98
			c-2.44-0.86-4.07-2.53-3.97-5.94c2.31,0.32,3.53-0.44,3.97-1.98c3.93,3.3,2.51-0.18,7.92,0c9.73,3.7,18.56-2.68,27.73-1.98
			c3.96,0,7.93,0,11.89,0c0-0.66,0-1.32,0-1.98C143.86,638.85,161.22,635.16,176.3,623.99z"/>
		<path class="st1" d="M208,713.13c-2.64,14.12-15.16,28.3-23.77,45.56c-9.83,19.7-14.21,45.16-31.7,51.5
			c-3.94,0.42-8.46-8.4-9.9-3.96c-2.83-3.78-4.61-8.6-5.95-13.87c0.11-2.53,2.54-2.74,1.99-5.94c1.68-0.36,1.86,0.77,1.98,1.98
			c14.4-18.61,18.42-47.6,35.65-63.39c-0.99,32.11-31.06,45.42-27.73,75.28c16.56-8.03,19.32-30.21,27.73-45.56
			C185.08,738.71,193.66,722.56,208,713.13z"/>
		<path class="st0" d="M255.54,190.17c-57.65,13.07-98.51,46.17-142.63,73.29c-26.17,16.09-48.02,42.2-81.21,45.56
			C105.98,270.38,157.63,198.58,255.54,190.17z"/>
		<path class="st0" d="M99.05,505.13c24.93,2.98,39.99,40.73,75.27,33.68c-2.23,11.02-20.66,8.83-25.75,7.92
			C127.98,543.05,116.19,510.42,99.05,505.13z"/>
		<path class="st0" d="M152.53,810.19c1.15,5.04,7.93,9.66,3.96,13.87c-7.61-2.96-8.23-12.9-13.86-17.83
			C144.07,801.79,148.59,810.61,152.53,810.19z"/>
		<path class="st1" d="M186.21,703.22c-0.79,17.22-46.29,26.74-65.37,13.87c-2.15,0.49-1.35,3.94-3.96,3.96
			c6.42-8.34-9.46-9.12-3.97-15.85c2.64,0,5.29,0,7.93,0C138.02,720.6,165.72,710.01,186.21,703.22z"/>
		<path class="st0" d="M138.67,786.42c0.55,3.2-1.88,3.41-1.99,5.94c-15.71-16.64-29.53-35.18-29.71-67.35
			c1.83-3.72,10.57-9.17,1.98-11.88c-1.44-19.93,3.25-33.73,1.98-53.49c1.21-0.11,2.35-0.29,1.98-1.98c2.64,0,5.29,0,7.93,0
			c0,15.85,0,31.7,0,47.54c-2.64,0-5.29,0-7.93,0c-5.49,6.73,10.39,7.51,3.97,15.85C116.81,750.17,128.66,767.37,138.67,786.42z"/>
		<path class="st0" d="M148.57,820.1c-8.11,8.37-44.18-1.57-33.68-11.89C123.66,814.64,137.3,816.18,148.57,820.1z"/>
		<path class="st0" d="M122.82,645.78c0,0.66,0,1.32,0,1.98c-3.96,0-7.93,0-11.89,0c5.05-34.58,7.11-72.14,23.77-95.09
			C131.74,577.4,116.68,611.19,122.82,645.78z"/>
		<path class="st1" d="M108.95,713.13c8.59,2.71-0.15,8.16-1.98,11.88c-11.22,8.59-14.74,24.88-21.79,37.64
			c-2.94,1.68-2.87,6.38-3.96,9.91c-6.6,9.97,8.8,14.91,11.88,21.79c3.46,6.45,7.49,12.32,5.95,23.77
			c-2.63,5.3-4.25,11.59-13.87,9.9c-0.06-8.65,8.86-8.31,5.94-19.81c-4.52-11.98-21.02-11.99-25.75-23.77
			c-2.99-14.87,7.99-15.79,7.92-27.73c4.99-1.03,5.9-9.06,11.89-13.87C94.54,734.37,96.96,718.96,108.95,713.13z"/>
		<path class="st0" d="M108.95,804.25c-10.8,2.22-6.85-10.32-13.87-11.89c-3.23-7.98-7.34-15.11-13.86-19.8
			c1.09-3.53,1.02-8.23,3.96-9.91C91.32,778.3,103.4,788.02,108.95,804.25z"/>
		<path class="st0" d="M73.29,560.6c18.65-0.51,32.17-6.14,45.57-11.89c-8.1,19.64-36.86,18.61-57.45,25.75
			C65.09,569.56,66.95,562.84,73.29,560.6z"/>
		<path class="st0" d="M85.18,659.64c1.41,24.37,3.63,54.6,0,83.2c-5.99,4.81-6.9,12.84-11.89,13.87c0-1.32,0-2.64,0-3.96
			c0.09-6.52,3.35-9.87,1.99-17.83c-0.86-33.6,4.33-49.65,0-77.26C79.87,657.03,82.88,657.98,85.18,659.64z"/>
		<path class="st0" d="M83.2,649.74c-5.41-0.18-3.99,3.3-7.92,0c-0.84-19.65-11.23-40.26-13.87-51.51
			C75.2,601.17,80.81,628.86,83.2,649.74z"/>
		<path class="st1" d="M75.28,806.23c0.89,5.71,7.01,6.2,5.94,13.87c-8.37-0.64-11.47-9.92-17.83-15.85
			c-6.53-6.09-27.86-13.99-25.75-27.73c1.63-10.64,22.76-15.07,23.77-31.7c1.22-20.12-14.98-33.49-41.6-25.75
			c12.67-23.63,51.69-0.98,55.47,15.85c1.36,7.96-1.9,11.31-1.99,17.83c-7.22,9.94-14.99,19.34-27.73,23.77
			c-0.08,3.39,1.47,5.13,3.96,5.94C59.06,789.44,65.68,799.32,75.28,806.23z"/>
		<path class="st1" d="M69.33,552.67c0.45,3.51-1.99,9.92,3.96,7.93c-6.34,2.24-8.2,8.96-11.88,13.86
			c-17.88,21.21-5.99,58.6-3.96,79.24c-15.24-14.87-23.75-50.78-11.89-75.27c2.61-4,6.31-6.9,7.93-11.89
			C59.41,562.56,58.24,551.49,69.33,552.67z"/>
		<path class="st1" d="M31.7,572.48c8.91-10.45,17.88-30.69,35.65-25.75c-8.69,5.84-18.38,10.67-21.79,21.79
			c-0.61,4.67-6.88,3.69-5.94,9.91c-5.11,3.47-4.12,13.05-5.94,19.8c1.24,6.03-2.54,17.07,1.98,19.81c0.09,17.74,4.66,31,9.9,43.58
			c-12.17-1.55-21.9,14.36-33.67,11.89c2-11.2,14.24-12.17,21.79-17.83c-3.35-22.42-9.68-50.14-3.97-75.27
			C29.46,576.85,32.14,576.23,31.7,572.48z"/>
		<path class="st0" d="M53.49,566.54c-1.62,4.99-5.32,7.89-7.93,11.89c-1.98,0-3.96,0-5.94,0c-0.94-6.22,5.33-5.24,5.94-9.91
			C49.7,569.36,50.81,567.16,53.49,566.54z"/>
		<path class="st1" d="M33.68,598.23c4.51,2.75,0.74,13.79,1.98,19.81C31.14,615.3,34.92,604.26,33.68,598.23z"/>
		<path class="st0" d="M31.7,572.48c0.44,3.75-2.24,4.37-1.99,7.93c-5.21,0.59-6.5-2.75-5.94-7.93
			C26.41,572.48,29.05,572.48,31.7,572.48z"/>
	</g>
	<g>
	</g>
</g>
</svg>
