<svg xmlns="http://www.w3.org/2000/svg" fill="none" viewBox="0 0 177 232">
  <path fill="#93009D" d="m177 118-3 2-8-1c-8 0-12 4-17 7-4-3-12-2-15-6-1-4 5-5 8-4 2 2-2 2-4 3 3 1 7 2 9 4 8-8 19-5 30-5Zm-34-11c9 6 19 2 30 3 0 4-5 2-9 2-7 1-14 1-20-1-2 0 1 4-1 4-3 0-2-3-2-6l2-2Zm-6 6c-2 1-4-4-9-1-19-18-55 8-73 18 4-2 8-8 12-11 16-8 47-26 62-10 5-1 8 0 8 4Zm-23-74c4 13 16 25 10 41-2-3-1-7-2-11l-8-19c-5-12-5-23-9-32 2-1 1 2 4 2 3 6 2 13 5 19Zm3 46c-10 2-12-9-19-14-6-5-16-9-20-17-2-6-2-12-2-18l2 1c0 18 16 24 25 35l5 8c2 2 7 2 9 5Zm-6-80 1 2c-5 1-7 5-13 6 2-5 7-6 12-8Zm-2 5h2c-1 3-2 6-6 6l4-6Z"/>
  <path fill="#0182F6" d="M101 152c2 4 8 3 7 10-7 3-11-6-20-4-3 0-2 4-5 4 3-12 14-6 22-2-2-4-6-5-7-9 3-1 10-1 13-4-4-6-17-3-21-9 7 2 23 0 25 9a17 17 0 0 1-14 5Z"/>
  <path fill="#93009D" d="M147 105c-12-2-27-13-44-12-10 1-18 6-27 7 20-14 55-9 71 5Z"/>
  <path fill="#0182F6" d="M95 220h4c-5 10-8-2-10-7l-8-8c-8 0-12-4-14-11 4-1 3 3 5 5 13 0 19 11 23 21Z"/>
  <path fill="#0182F6" d="M82 193c10 4 14 15 17 25-6-1-5-9-9-15-3-5-7-5-10-9v-2l2 1Z"/>
  <path fill="#93009D" d="M92 3c7 1 5 11 1 14-2-2 1-10-1-14Zm-2 14c-8 0-6-19 1-16-4 3-4 12-1 16Z"/>
  <path fill="#0182F6" d="M77 128c6 1 11 4 12 10-3-1-6-3-8-6-3 0-1 5-2 5-3-1-3-7-2-9Zm6 34c5 9-2 21-3 29-5-8 4-17 1-29h2Z"/>
  <path fill="#93009D" d="M73 57c3 1-3 5-3 8 1 15 2 25-4 37 3-14-7-37 7-45Z"/>
  <path fill="#0182F6" d="M56 162c9-7 13-18 22-23a58 58 0 0 1-41 34h-2l-1 1c-2-2-6 0-9 0l-3-1-2-2 2-1h2c4 2 7-1 10 0h4v-1l18-7Zm11 30c-1 5-5 10-8 16s-5 15-11 17c-1 0-3-3-3-1l-2-5v-2l1 1c5-7 6-17 12-22 0 11-10 16-9 26 5-3 6-11 9-16s6-11 11-14Z"/>
  <path fill="#93009D" d="M83 13c-19 5-33 16-48 25-9 6-17 15-28 16 25-13 43-38 76-41ZM30 121c8 1 13 14 25 11 0 4-7 3-8 3-7-1-11-12-17-14Zm18 104c0 2 3 4 1 5-2-1-2-4-4-6 0-2 2 1 3 1Z"/>
  <path fill="#0182F6" d="M60 189c-1 6-16 9-23 4l-1 2c2-3-3-3-1-6h2c6 6 16 2 23 0Z"/>
  <path fill="#93009D" d="M43 217v2c-6-6-10-12-10-23 0-1 3-3 0-4l1-18 1-1h2v16h-2c-2 3 3 3 1 6 0 10 4 16 7 22Zm4 12c-3 3-15-1-12-4l12 4Zm-9-60v1h-4c2-12 2-25 8-33-1 9-6 20-4 32Z"/>
  <path fill="#0182F6" d="M33 192c3 1 0 3 0 4-4 3-5 9-8 13l-1 3c-3 4 3 5 4 8l2 8c-1 2-2 4-5 3 0-3 3-3 2-6-1-5-7-5-9-9-1-5 3-5 3-9 2 0 2-3 4-5 3-3 4-8 8-10Z"/>
  <path fill="#93009D" d="M33 223c-3 1-2-3-5-4 0-3-2-5-4-7l1-3 8 14Zm-12-83c6 0 11-2 16-4-3 6-13 6-20 9l4-5Zm4 34v28c-2 2-2 5-4 5v-1l1-6v-27l3 1Zm-1-4h-2l-5-17c5 1 7 10 7 17Z"/>
  <path fill="#0182F6" d="M22 224c0 2 2 2 2 5-3-1-4-4-6-6-3-2-10-5-9-9 0-4 8-5 8-11 0-7-5-12-14-9 4-8 17 0 19 5l-1 7-9 8 1 2 9 8Zm-2-87c0 1-1 4 1 3l-4 5c-6 7-2 20-1 27a25 25 0 0 1-4-26l2-4c2-2 2-5 6-5Z"/>
  <path fill="#0182F6" d="M7 144c3-4 6-11 12-9-3 2-6 4-7 8-1 1-3 1-3 3l-2 7 1 6c0 6 2 11 4 15-5 0-8 5-12 4 1-3 5-4 7-6-1-7-3-17-1-25l1-3Z"/>
  <path fill="#93009D" d="m14 142-2 4H9c0-2 2-2 3-3l2-1Z"/>
  <path fill="#0182F6" d="M8 153v6-6Z"/>
  <path fill="#93009D" d="m7 144-1 3c-2 0-2-1-2-3h3Z"/>
</svg>
