<svg xmlns="http://www.w3.org/2000/svg" fill="none" viewBox="0 0 55 55">
  <path fill="#93009D" d="M27.5 55a27.5 27.5 0 1 0 0-55 27.5 27.5 0 0 0 0 55Z"/>
  <mask id="a" width="55" height="55" x="0" y="0" maskUnits="userSpaceOnUse" style="mask-type:alpha">
    <path fill="#93009D" d="M27.5 55a27.5 27.5 0 1 0 0-55 27.5 27.5 0 0 0 0 55Z"/>
  </mask>
  <g mask="url(#a)">
    <path fill="#fff" stroke="#fff" stroke-width=".6" d="M34.2 23.5c1.8 5.4 6.5 10.3 4.1 16.7-.8-1 0-2.7-.5-4.2-.9-2.5-2.5-5.2-3.6-8-1.9-4.9-1.8-9.5-3.5-13.2.8-.1.6 1 1.6 1 1 2.5 1 5.2 1.9 7.7Zm1.4 19c-4.3.8-5-3.6-7.8-5.9-2.5-2-6.7-3.7-8-7-1-2.2-1-4.8-1-7.2.5 0 .6.2 1 .3-.3 7.7 6.5 9.7 10.2 14.5 1 1.1 1.1 2.6 1.9 3.3 1 .9 2.8.9 3.7 2ZM33 9.6c.4 0 .7.3.7.8-2.4.3-3 2.2-5.3 2.5.5-2.2 2.9-2.5 4.6-3.3Zm-.8 1.9h.8c-.3 1.3-.7 2.6-2.4 2.4.6-.7 1.5-1.2 1.7-2.4h-.1Zm-7-2.8c2.9.3 2.2 4.7.6 5.9-.9-.7.3-4.4-.5-5.9Zm-.8 5.9c-3-.2-2.3-8 .6-6.7-1.7 1.4-2 4.8-.5 6.7h-.1ZM17.5 31c1.2.5-1.1 2-1.4 3 .4 6.5.9 10.6-1.7 15.3 1.3-5.9-2.6-15 3.1-18.3Zm4.2-18.2c-8.2 1.8-13.9 6.5-20 10.3-3.8 2.3-6.8 6-11.4 6.5C.7 24.2 7.9 14 21.6 12.9Z"/>
  </g>
</svg>
